<svg width="24" height="24" viewBox="0 0 24 24" fill="none" xmlns="http://www.w3.org/2000/svg">
<path d="M11.7257 20.2286V5.41714M11.7257 20.2286L10.2682 18.7711C9.44522 17.9481 8.32946 17.4857 7.16554 17.4857H3.49618C2.89025 17.4857 2.39999 16.9945 2.39999 16.3886V4.86857C2.39999 4.26263 2.8912 3.77142 3.49714 3.77142H7.71362C8.87754 3.77142 9.99379 4.23379 10.8168 5.05681L11.7257 5.96571L12.6346 5.05681C13.4576 4.23379 14.5739 3.77142 15.7378 3.77142H20.5028C21.1088 3.77142 21.6 4.26263 21.6 4.86857V16.3886C21.6 16.9945 21.1088 17.4857 20.5028 17.4857H16.2864C15.1224 17.4857 14.0062 17.9481 13.1832 18.7711L11.7257 20.2286Z" stroke="black" stroke-width="2" stroke-linecap="round" stroke-linejoin="round"/>
</svg>
