<svg width="85" height="85" viewBox="0 0 85 85" fill="none" xmlns="http://www.w3.org/2000/svg">
<path d="M42.5876 74.7747C42.5876 74.7747 24.4803 73.3364 17.0195 65.8389C9.85741 58.6416 5.56626 51.2564 8.0883 41.421C10.7284 31.1252 29.1553 24.1886 29.1553 24.1886C29.1553 24.1886 25.5195 46.2399 30.9293 58.5318C34.0746 65.6783 42.5876 74.7747 42.5876 74.7747Z" fill="url(#paint0_linear_28_109)"/>
<path d="M84.2819 39.8934C84.2819 61.5293 66.7425 79.0687 45.1066 79.0687C23.4707 79.0687 5.93128 61.5293 5.93128 39.8934C5.93128 18.2575 23.4707 0.718081 45.1066 0.718081C66.7425 0.718081 84.2819 18.2575 84.2819 39.8934Z" fill="black" stroke="url(#paint1_linear_28_109)" stroke-width="1.43616"/>
<path d="M43.2716 17.7127L35.4525 29.2818L51.8885 38.2977L56.3566 51.3029L60.4257 35.9839L70.6384 29.2818L79.2554 35.9839C79.2554 35.9839 79.3027 28.9121 78.4575 24.4946C77.5965 19.9942 74.8671 13.3244 74.8671 13.3244" stroke="url(#paint2_linear_28_109)" stroke-width="0.159574"/>
<path d="M43.2445 43.6978C42.5363 45.0651 42.4968 45.7849 40.6913 46.969C42.5588 48.0259 42.5033 48.8765 43.2445 50.5594C43.7764 48.7123 44.1788 47.8174 45.4785 46.969C44.2398 45.7574 43.7922 45.0336 43.2445 43.6978Z" fill="url(#paint3_linear_28_109)" stroke="url(#paint4_linear_28_109)" stroke-width="0.159574"/>
<path d="M70.9876 50.1541C69.7336 51.0477 69.37 51.6701 67.2231 51.9C68.4026 53.6925 67.9651 54.4241 67.8567 56.2598C69.1729 54.8589 69.9392 54.2462 71.4829 54.0843C70.9335 52.4409 70.8655 51.5927 70.9876 50.1541Z" fill="url(#paint5_linear_28_109)" stroke="url(#paint6_linear_28_109)" stroke-width="0.159574"/>
<path d="M9.60153 24.2552L11.3568 20.0265L15.3462 14.9201L20.7717 9.89357L26.0376 5.98401L31.7025 3.51062L35.4525 1.99467L38.8833 1.45886H41.8354L44.9471 1.03723L47.7356 1.45886H52.3673L57.1585 2.63297L63.5374 5.92692L51.0907 9.33506L47.7356 14.9201L42.2343 18.2712C42.2343 18.2712 37.5266 22.2546 35.2929 25.452C34.0379 27.2484 33.3604 28.3035 32.5003 30.319C32.0207 31.4429 31.4631 33.2711 31.4631 33.2711L30.9844 35.5051C30.9844 35.5051 30.749 37.6416 30.745 39.0158C30.7426 39.8576 30.8248 41.17 30.8248 41.17L30.9844 42.6859L32.0216 46.7551L32.6599 48.5902C33.4608 50.6709 34.0872 51.7722 35.2131 53.6965C36.6363 56.1289 37.6255 57.3813 39.362 59.6007C40.2077 60.6816 41.596 62.3135 41.596 62.3135C41.596 62.3135 42.4491 63.115 42.9524 63.6699C42.9524 63.6699 43.4812 64.3073 43.8301 64.7071C46.1056 67.3147 50.2928 70.7709 50.2928 70.7709L58.2715 76.9145L49.2556 78.59H39.8407L29.5482 75.957L24.5217 73.2443L20.2132 69.8932L15.8249 65.505L11.5164 59.9997L8.5643 52.7391L6.64941 45.6381V33.2711L9.60153 24.2552Z" fill="url(#paint7_linear_28_109)"/>
<path d="M50.5321 6.06378H66.1703C66.1703 6.06378 69.4878 8.04923 71.3565 9.65419C72.911 10.9893 73.9128 11.6842 75.0267 13.4042C76.3871 15.5049 76.7367 16.9249 77.5001 19.3084C78.2638 21.693 78.6969 25.8509 78.6969 25.8509L79.0958 30.9573L79.2554 35.9838L70.6384 29.202L65.4522 32.6328L60.4257 35.9041L56.3566 51.2231L51.9683 38.3774L35.3726 29.2817L43.3513 17.2339L50.5321 6.06378Z" fill="url(#paint8_linear_28_109)"/>
<defs>
<linearGradient id="paint0_linear_28_109" x1="42.1229" y1="75.0787" x2="14.2305" y2="32.4353" gradientUnits="userSpaceOnUse">
<stop stop-color="#D08124"/>
<stop offset="1" stop-color="#6A1212"/>
</linearGradient>
<linearGradient id="paint1_linear_28_109" x1="45.1066" y1="0" x2="45.1066" y2="79.7868" gradientUnits="userSpaceOnUse">
<stop stop-color="#D08124"/>
<stop offset="1" stop-color="#6A1212"/>
</linearGradient>
<linearGradient id="paint2_linear_28_109" x1="57.3542" y1="13.3244" x2="57.3542" y2="51.3029" gradientUnits="userSpaceOnUse">
<stop stop-color="#D08124"/>
<stop offset="1" stop-color="#6A1212"/>
</linearGradient>
<linearGradient id="paint3_linear_28_109" x1="43.2716" y1="43.8827" x2="43.2716" y2="50.7444" gradientUnits="userSpaceOnUse">
<stop stop-color="#D08124"/>
<stop offset="1" stop-color="#6A1212"/>
</linearGradient>
<linearGradient id="paint4_linear_28_109" x1="43.2716" y1="43.8827" x2="43.2716" y2="50.7444" gradientUnits="userSpaceOnUse">
<stop stop-color="#D08124"/>
<stop offset="1" stop-color="#6A1212"/>
</linearGradient>
<linearGradient id="paint5_linear_28_109" x1="70.9273" y1="50.331" x2="67.7965" y2="56.4368" gradientUnits="userSpaceOnUse">
<stop stop-color="#D08124"/>
<stop offset="1" stop-color="#6A1212"/>
</linearGradient>
<linearGradient id="paint6_linear_28_109" x1="70.9273" y1="50.331" x2="67.7965" y2="56.4368" gradientUnits="userSpaceOnUse">
<stop stop-color="#D08124"/>
<stop offset="1" stop-color="#6A1212"/>
</linearGradient>
<linearGradient id="paint7_linear_28_109" x1="35.0934" y1="1.45886" x2="35.0934" y2="78.59" gradientUnits="userSpaceOnUse">
<stop stop-color="#D08124"/>
<stop offset="1" stop-color="#6A1212"/>
</linearGradient>
<linearGradient id="paint8_linear_28_109" x1="57.314" y1="4.46805" x2="57.314" y2="51.2231" gradientUnits="userSpaceOnUse">
<stop stop-color="#D08124"/>
<stop offset="1" stop-color="#6A1212"/>
</linearGradient>
</defs>
</svg>
