<svg width="641" height="641" viewBox="0 0 641 641" fill="none" xmlns="http://www.w3.org/2000/svg">
<circle cx="320.5" cy="320.5" r="320.5" fill="#00643C"/>
<path d="M278.5 188.5C291.162 177.637 301.824 174.004 318.5 173.5C336.646 172.951 348.732 176.667 362.5 188.5C372.316 196.937 376 220 376 220C376 220 367.598 215.215 359 215C348.459 214.736 332 215 332 215L303.5 216C303.5 216 291.332 214.587 283.5 214.5C274.305 214.398 262.5 220 262.5 220C262.5 220 268.677 196.928 278.5 188.5Z" fill="white"/>
<path d="M263.273 219.103C263.46 218.46 263.736 217.541 264.095 216.415C264.825 214.129 265.899 210.995 267.279 207.599C270.05 200.78 274.014 193.008 278.826 188.879C285.123 183.476 290.904 179.888 297.167 177.585C303.433 175.28 310.21 174.251 318.515 174C327.551 173.727 335.046 174.516 341.984 176.831C348.919 179.145 355.327 182.994 362.174 188.879C366.966 192.998 370.308 200.748 372.454 207.564C373.522 210.956 374.286 214.087 374.782 216.371C375.03 217.509 375.211 218.436 375.33 219.078C375.164 218.994 374.978 218.901 374.773 218.8C373.84 218.343 372.508 217.732 370.904 217.114C367.703 215.881 363.392 214.61 359.013 214.5C353.734 214.368 346.978 214.368 341.544 214.401C338.827 214.418 336.439 214.442 334.73 214.463C333.876 214.473 333.192 214.483 332.721 214.489C332.485 214.493 332.303 214.495 332.18 214.497L332.04 214.499L332.004 214.5L331.995 214.5L331.993 214.5L331.992 214.5C331.992 214.5 331.992 214.5 332 214.969L331.992 214.5L331.982 214.5L303.52 215.499L303.418 215.487C303.327 215.477 303.192 215.462 303.017 215.442C302.668 215.403 302.162 215.348 301.529 215.281C300.264 215.147 298.496 214.967 296.482 214.785C292.459 214.42 287.442 214.044 283.506 214C278.822 213.948 273.507 215.345 269.391 216.738C267.328 217.436 265.554 218.138 264.295 218.665C263.902 218.83 263.559 218.977 263.273 219.103Z" stroke="white" stroke-opacity="0.5"/>
<path d="M382.5 264.5C380.193 309.257 344.733 343.001 318.5 343.001C292.266 343.001 255.5 299 258 257C258 227.453 294.766 269.952 321 269.952C347.233 269.952 385 216 382.5 264.5Z" fill="white"/>
<path d="M258.499 257.03L258.5 257.015V257C258.5 253.343 259.072 250.888 260.053 249.341C261.011 247.832 262.389 247.137 264.177 247.058C265.998 246.978 268.237 247.539 270.831 248.578C273.416 249.613 276.307 251.103 279.419 252.833C281.457 253.965 283.59 255.202 285.79 256.477C290.29 259.084 295.067 261.852 299.868 264.222C307.019 267.752 314.322 270.452 321 270.452C327.706 270.452 335.089 267.013 342.285 262.709C345.893 260.552 349.476 258.163 352.925 255.855L353.316 255.593C356.628 253.376 359.81 251.246 362.782 249.468C365.874 247.617 368.711 246.164 371.205 245.389C373.705 244.612 375.782 244.54 377.414 245.34C379.035 246.133 380.344 247.848 381.168 250.938C381.993 254.031 382.312 258.433 382.001 264.474C380.853 286.728 371.464 306.248 359.098 320.203C346.719 334.173 331.421 342.501 318.5 342.501C312.076 342.501 304.956 339.804 297.907 335.055C290.864 330.31 283.927 323.539 277.875 315.451C265.768 299.268 257.258 277.882 258.499 257.03Z" stroke="white" stroke-opacity="0.5"/>
<path d="M296 212L346 214C346 214 338.404 219.081 334.5 224.5C326.396 235.749 332.5 260 332.5 260L333 258C333 258 335.862 249.239 339.5 247C338.384 247.686 340.242 246.544 339.5 247C346 243 357 253 368.5 246C380 239 342.5 271 342.5 271L309.5 280L287.5 283.5L264 250.5C264 250.5 280 252.5 282.5 252.5C285 252.5 293.623 247.003 300.5 249C304.456 250.148 309.5 254.5 309.5 254.5C309.5 254.5 313.283 234.689 307.5 224.5C303.953 218.251 296 212 296 212Z" fill="white"/>
<path d="M287.728 282.958L265.067 251.136C265.456 251.184 265.934 251.242 266.479 251.309C268.018 251.496 270.097 251.747 272.255 251.997C276.547 252.494 281.213 253 282.5 253C282.888 253 283.354 252.896 283.853 252.747C284.36 252.595 284.943 252.382 285.579 252.139C285.906 252.015 286.247 251.881 286.602 251.743C287.639 251.339 288.789 250.891 290.019 250.475C293.332 249.355 297.08 248.528 300.361 249.48C302.254 250.03 304.448 251.364 306.196 252.59C307.064 253.199 307.81 253.772 308.339 254.193C308.603 254.404 308.812 254.576 308.956 254.695C309.027 254.755 309.082 254.801 309.119 254.832L309.16 254.867L309.17 254.876L309.173 254.878L309.173 254.879L309.173 254.879L309.173 254.879L309.829 255.444L309.991 254.594L309.5 254.5C309.991 254.594 309.991 254.594 309.991 254.593L309.991 254.593L309.992 254.589L309.994 254.578L310.002 254.534C310.01 254.495 310.02 254.438 310.033 254.363C310.06 254.213 310.098 253.993 310.145 253.71C310.238 253.143 310.364 252.324 310.497 251.31C310.762 249.283 311.056 246.472 311.168 243.339C311.392 237.103 310.901 229.478 307.935 224.253C306.125 221.065 303.208 217.9 300.767 215.547C299.542 214.366 298.43 213.383 297.623 212.694C297.568 212.648 297.515 212.603 297.464 212.559L344.504 214.441C344.489 214.452 344.474 214.463 344.458 214.474C343.679 215.039 342.6 215.849 341.398 216.83C339 218.787 336.085 221.444 334.094 224.208C332.004 227.109 330.848 230.821 330.274 234.72C329.7 238.622 329.704 242.746 329.962 246.502C330.22 250.26 330.733 253.662 331.181 256.124C331.405 257.356 331.613 258.353 331.765 259.044C331.841 259.389 331.904 259.657 331.947 259.84C331.969 259.932 331.985 260.001 331.997 260.049L332.01 260.103L332.014 260.117L332.015 260.121L332.015 260.122C332.015 260.122 332.015 260.122 332.5 260L332.015 260.122L332.985 260.121L333.481 258.139L333.483 258.132L333.507 258.061C333.528 257.998 333.56 257.904 333.602 257.784C333.686 257.544 333.811 257.197 333.971 256.774C334.293 255.926 334.76 254.774 335.338 253.554C335.916 252.332 336.602 251.053 337.362 249.946C338.127 248.832 338.94 247.932 339.762 247.426C341.246 246.513 343.016 246.377 345.094 246.637C346.596 246.824 348.199 247.209 349.922 247.622C350.601 247.784 351.298 247.951 352.015 248.113C357.043 249.244 362.835 250.033 368.76 246.427C369.029 246.263 369.269 246.123 369.479 246.004C369.318 246.187 369.133 246.389 368.925 246.61C367.043 248.608 363.449 251.938 359.479 255.503C355.513 259.063 351.187 262.842 347.852 265.732C346.185 267.176 344.766 268.398 343.763 269.259C343.262 269.69 342.865 270.03 342.593 270.262L342.282 270.528L342.26 270.547L309.395 279.51L287.728 282.958Z" stroke="white" stroke-opacity="0.5"/>
<path d="M329 257C329 257 331.493 260.419 334.087 260.921C337.459 261.573 342 257.98 342 257.98" stroke="white" stroke-width="5"/>
<path d="M352 212.5C352 212.5 347.207 212.726 343.592 213.649C338.892 214.849 333.907 219.993 333.907 219.993" stroke="white" stroke-width="5"/>
<path d="M308.191 219.59C308.191 219.59 304.599 216.409 301.365 214.549C297.16 212.131 290 212.34 290 212.34" stroke="white" stroke-width="5"/>
<path d="M303 253.871C303 253.871 306.251 256.413 308.584 256.123C311.617 255.745 314.166 250.942 314.166 250.942" stroke="white" stroke-width="5"/>
<path d="M372.704 236.195C372.704 239.356 366.469 232.188 354.891 232.188C343.314 232.188 337.5 240.661 337.5 237.5C337.5 234.338 343.135 223.338 356 221.5C370 219.5 372.704 233.033 372.704 236.195Z" fill="white"/>
<path d="M372.082 236.195C372.082 236.28 372.076 236.338 372.07 236.377C372.012 236.373 371.905 236.359 371.726 236.306C371.393 236.207 370.954 236.018 370.384 235.752C370.157 235.646 369.887 235.517 369.595 235.378C369.219 235.198 368.806 235 368.402 234.813C365.363 233.4 360.813 231.566 354.891 231.566C348.943 231.566 344.482 233.745 341.536 235.494C340.93 235.855 340.385 236.199 339.909 236.498C339.809 236.561 339.713 236.623 339.619 236.682C339.069 237.027 338.645 237.286 338.319 237.443C338.243 237.48 338.177 237.508 338.123 237.529C338.122 237.52 338.122 237.51 338.122 237.5C338.122 236.849 338.427 235.669 339.142 234.196C339.846 232.743 340.92 231.062 342.39 229.418C345.326 226.133 349.825 223.011 356.088 222.116C359.484 221.631 362.154 222.092 364.253 223.072C366.356 224.053 367.926 225.573 369.089 227.264C371.431 230.67 372.082 234.715 372.082 236.195ZM372.052 236.443C372.051 236.442 372.053 236.439 372.056 236.434C372.054 236.44 372.052 236.443 372.052 236.443ZM337.93 237.584C337.93 237.584 337.93 237.584 337.932 237.584C337.93 237.584 337.93 237.584 337.93 237.584Z" stroke="white" stroke-opacity="0.5" stroke-width="1.24475"/>
<path d="M262.5 239C262.5 242.513 272.811 233.653 284.598 233.653C296.386 233.653 302 245.013 302 241.5C302 237.987 297.5 217 273.5 223C262.237 225.816 262.5 235.487 262.5 239Z" fill="white"/>
<path d="M263.144 239C263.144 239.091 263.154 239.141 263.161 239.165C263.271 239.196 263.554 239.193 264.115 239.029C264.992 238.772 266.186 238.243 267.683 237.579C268.06 237.412 268.456 237.236 268.87 237.055C272.926 235.277 278.558 233.01 284.598 233.01C290.711 233.01 295.206 235.958 298.132 238.4C298.864 239.011 299.5 239.592 300.038 240.088C300.091 240.137 300.143 240.185 300.194 240.231C300.666 240.667 301.041 241.012 301.342 241.254C301.344 241.257 301.347 241.259 301.35 241.261C301.305 240.367 301.024 238.604 300.312 236.489C299.534 234.176 298.255 231.487 296.256 229.095C294.261 226.708 291.549 224.617 287.887 223.48C284.224 222.343 279.565 222.147 273.656 223.624C268.228 224.982 265.636 227.96 264.37 230.987C263.137 233.935 263.141 236.972 263.143 238.778C263.143 238.854 263.144 238.928 263.144 239ZM301.765 241.539C301.765 241.539 301.763 241.539 301.76 241.538C301.763 241.539 301.765 241.539 301.765 241.539Z" stroke="white" stroke-opacity="0.5" stroke-width="1.28701"/>
<path d="M332 281.408C332 283.97 325.394 289 318.046 289C310.698 289 305 283.97 305 281.408C305 278.846 318.046 280.564 318.046 280.564C318.046 280.564 332 278.846 332 281.408Z" fill="#00643C"/>
<path d="M343.5 295.65C343.5 298.688 327.559 312.819 318.17 312.819C308.781 312.819 294 298.187 294 295.15C294 292.112 308.724 296.041 318.17 296.15C328.063 296.264 343.5 292.613 343.5 295.65Z" fill="#00643C"/>
<path d="M261 124L319.5 112L380 124L373.438 181C327.938 161 313.438 161 268.938 181L261 124Z" fill="white"/>
<path d="M380.001 124.604C392 103.5 330.365 124.604 316.282 124.604C302.199 124.604 261.5 132.991 261.5 124.707C253.089 99.2033 286.001 137.001 306.501 101C327 65 325.501 124.604 380.001 124.604Z" fill="white"/>
<path d="M356.662 118.359C356.662 119.265 354.051 120 350.831 120C347.611 120 345 119.265 345 118.359C345 117.452 348.498 116.717 351.414 117.538C358.994 116.307 356.662 117.452 356.662 118.359Z" fill="white"/>
<path d="M297.5 136.499C296.124 140.112 293.081 166.028 282.501 161.999C271.92 157.97 245.116 129.154 246.492 125.541C247.867 121.928 250.919 118.971 261.5 123C274.5 116.5 292.193 117.867 297.5 136.499Z" fill="white"/>
<path d="M343.936 137.279C345.25 140.72 348.175 165.403 358.25 161.554C368.324 157.705 393.827 130.229 392.513 126.789C391.199 123.349 388.288 120.535 378.214 124.384C365.824 118.205 348.972 119.525 343.936 137.279Z" fill="white"/>
<ellipse cx="293" cy="122.5" rx="16" ry="13.5" fill="white"/>
<ellipse cx="349" cy="122.5" rx="16" ry="13.5" fill="white"/>
<path d="M261 151.499C263.4 149.899 272.821 125.886 319.5 124.998C366.179 124.11 397.508 159.846 389.5 160" stroke="#00643C" stroke-width="5"/>
<path d="M318 135L325 153.314C320.165 156.667 317.186 157.117 311 153.314L318 135Z" fill="#00643C"/>
<path d="M333 139.5C333 139.5 325.49 142.5 325.49 154.75C325.49 156.933 316.5 154.75 316.5 154.75L319.99 142.5L333 139.5Z" fill="#00643C"/>
<path d="M304 140C304 140 310.352 143.296 310.352 155.093C310.352 157.196 319.01 155.093 319.01 155.093L317 143L304 140Z" fill="#00643C"/>
<path d="M320.5 153C320.5 153 310.605 163.669 304 163.5C294.993 163.27 293.002 151.642 284 152C275.017 152.358 265 165 265 165" stroke="#00643C" stroke-width="4"/>
<path d="M380 163.136C379.2 162.336 362.667 153.803 354.5 149.636C346.333 145.469 333 163.136 333 163.136" stroke="#00643C" stroke-width="4"/>
<path d="M277.5 158C279.167 156.167 282.6 152.5 283 152.5L287.5 160.5L281 166L277.5 158Z" fill="#00643C" stroke="#00643C" stroke-width="4"/>
<path d="M342.5 151.5L339 140.5L355 139L352 147.5L342.5 151.5Z" fill="#00643C" stroke="#00643C" stroke-width="4"/>
<path d="M248.472 259.248C248.472 306.107 292.451 342 277.132 342C265.943 342 204 291.52 204 250.773C204 210.026 295.592 175 306.781 175C317.97 175 248.472 218.501 248.472 259.248Z" fill="white"/>
<path d="M391.5 261.455C391.5 307.812 347.608 343.32 362.896 343.32C374.063 343.32 435.885 293.381 435.885 253.071C435.885 212.76 356.667 179 345.5 179C334.333 179 391.5 221.144 391.5 261.455Z" fill="white"/>
<path d="M320.5 186C320.5 186 307.016 201.595 298 208C288.068 215.056 269 219.5 269 219.5" stroke="#00643C" stroke-width="4"/>
<path d="M317.5 186C317.5 186 334.645 202.493 344.215 209.292C354.758 216.783 375 221.5 375 221.5" stroke="#00643C" stroke-width="4.24615"/>
<rect x="315" y="187.355" width="5.24769" height="1.15426" transform="rotate(-43.7296 315 187.355)" fill="white"/>
<path d="M320.066 403.502L257.066 350.004L393.066 344L320.066 403.502Z" fill="#00643C"/>
<path d="M284.798 378C288.493 367.559 291.798 354 291.798 354C291.798 354 307.045 361.335 317.5 361.5C328.554 361.675 344.798 354 344.798 354C344.798 354 350.188 367.602 354 378C360.498 395.723 380.093 398.397 383.298 417C386.37 434.829 368.798 461 368.798 461C368.798 461 347.692 484.415 343.298 507C340.725 520.225 341.259 520.5 343.298 533C347.305 557.563 364.64 578.814 367.798 603.5C369.012 612.99 367.798 628 367.798 628H268.798C268.798 628 267.326 613.941 268.798 603.5C272.114 579.98 287.887 557.928 291.798 534.5C294.016 521.211 294.371 525.225 291.798 512C287.403 489.415 270.298 461 270.298 461C270.298 461 252.502 434.938 255.298 417C258.113 398.941 278.701 395.23 284.798 378Z" fill="white" stroke="white" stroke-width="11"/>
<path d="M256 358C256 358 244.407 340.139 248.123 335.118C252.387 329.359 277.5 353.5 277.5 353.5" stroke="#00643C" stroke-width="5"/>
</svg>
